<svg width="1336" height="246" viewBox="0 0 1336 246" fill="none" xmlns="http://www.w3.org/2000/svg">
<path d="M1336 208.906C1336 227.507 1319.94 242.584 1300.12 242.584C1280.31 242.584 1264.24 227.507 1264.24 208.906C1264.24 190.306 1280.31 175.229 1300.12 175.229C1319.94 175.229 1336 190.306 1336 208.906Z" fill="#93F224"/>
<path d="M1161.32 0V158.614L1036.52 3.4574L1033.83 0H1033.73H984.621V245.999H1039.87V86.0453L1164.57 242.362L1167.37 245.999H1216.57V227.296V0H1161.32Z" fill="white"/>
<path d="M363.641 246C345.024 246 329.311 243.634 311.815 238.658L294.143 206.295L276.47 173.938C286.567 181.416 308.355 190.509 322.254 195.038C336.167 199.568 350.069 201.832 363.983 201.832C379.457 201.832 390.888 199.568 398.299 195.038C405.702 190.275 409.401 184.046 409.401 176.347C409.401 170.688 407.155 166.035 402.675 162.42C398.407 158.57 392.804 155.516 385.84 153.237C379.115 150.983 369.917 148.482 358.262 145.771C340.316 141.463 325.623 137.155 314.18 132.86C302.736 128.551 292.877 121.647 284.568 112.128C276.493 102.62 272.461 89.9324 272.461 74.0752C272.461 60.2593 276.16 47.7956 283.563 36.7022C290.961 25.3779 302.072 16.4264 316.874 9.8533C331.899 3.28253 350.175 0 371.712 0C386.738 0 397.802 0.859492 412.155 4.48833L436.651 62.8584C414.896 50.4049 393.135 44.1667 371.385 44.1667C356.121 44.1667 344.797 46.6686 337.396 51.645C330.222 56.6328 326.626 63.2058 326.626 71.3516C326.626 79.5099 330.778 85.6235 339.074 89.7072C347.599 93.5567 360.497 97.4061 377.769 101.256C395.713 105.564 410.406 109.86 421.85 114.167C433.293 118.475 443.044 125.27 451.121 134.554C459.417 143.838 463.567 156.414 463.567 172.271C463.567 185.864 459.76 198.318 452.122 209.644C444.724 220.747 433.518 229.571 418.479 236.146C403.457 242.719 385.181 245.999 363.64 245.999L363.641 246Z" fill="white"/>
<path d="M543.169 46.3886H513.972H481.699L463.539 0H678.172L658.736 46.3886H636.818H598.543V245.999H543.169V46.3886Z" fill="white"/>
<path fill-rule="evenodd" clip-rule="evenodd" d="M851.111 191.519C839.775 198.106 827.066 201.385 813.011 201.385C798.944 201.385 786.248 198.106 774.912 191.519C763.562 184.703 754.612 175.308 748.028 163.323C741.681 151.338 738.5 137.711 738.5 122.437C738.5 107.17 741.681 93.5349 748.028 81.5489C754.612 69.564 763.562 60.2925 774.912 53.7057C786.248 46.8903 798.944 43.4867 813.011 43.4867C827.066 43.4867 839.775 46.8903 851.111 53.7057C862.448 60.2925 871.3 69.5629 877.652 81.5489C884.236 93.5338 887.509 107.17 887.509 122.437C887.509 137.711 884.235 151.337 877.652 163.323C871.301 175.308 862.448 184.703 851.111 191.519ZM745.995 228.982C765.951 239.583 788.292 244.882 813.011 244.882C837.729 244.882 859.966 239.583 879.696 228.982C899.426 218.382 914.958 203.84 926.307 185.351C937.643 166.635 943.306 145.67 943.306 122.437C943.306 99.2154 937.643 78.3578 926.307 59.8696C914.958 41.1562 899.426 26.4923 879.696 15.9018C859.966 5.30211 837.729 0 813.011 0C788.292 0 765.951 5.30211 745.995 15.9018C726.252 26.4923 710.721 41.1562 699.371 59.8696C688.259 78.3578 682.703 99.2165 682.703 122.437C682.703 145.67 688.259 166.635 699.371 185.351C710.721 203.84 726.252 218.382 745.995 228.982Z" fill="white"/>
<path d="M49.0614 244.924C62.9141 215.475 94.126 194.909 130.463 194.909C167.24 194.909 198.802 215.957 212.398 245.985H260.604C260.604 245.985 257.106 224.102 234.906 198.424C220.778 182.098 210.836 175.203 193.696 166.378C140.702 139.127 88.6169 157.663 88.6169 157.663L132.863 49.1991L153.304 113.528C153.304 113.528 172.286 113.083 189.062 118.26C205.836 123.439 214.619 132.453 214.619 132.453L158.411 0H132.863H107.305L0 245.986H48.4112C48.4112 245.986 48.6352 245.606 49.0602 244.926L49.0614 244.924Z" fill="white"/>
</svg>
